<?xml version="1.0" ?><svg enable-background="new 0 0 512 512" id="Layer_1" version="1.1" viewBox="0 0 512 512" xml:space="preserve" xmlns="http://www.w3.org/2000/svg" xmlns:xlink="http://www.w3.org/1999/xlink"><g><g><linearGradient gradientUnits="userSpaceOnUse" id="SVGID_1_" x1="0.0000083" x2="512" y1="256" y2="256"><stop offset="0" style="stop-color:#FFCA05"/><stop offset="1" style="stop-color:#FAAC18"/></linearGradient><circle cx="256" cy="256" fill="url(#SVGID_1_)" r="256"/><linearGradient gradientUnits="userSpaceOnUse" id="SVGID_2_" x1="42.6666756" x2="469.333313" y1="256.0005188" y2="256.0005188"><stop offset="0" style="stop-color:#FAAC18"/><stop offset="1" style="stop-color:#FFCA05"/></linearGradient><path d="M256,469.3338623c-117.6309204,0-213.3333282-95.7018738-213.3333282-213.3333435    c0-117.6309204,95.7024078-213.333313,213.3333282-213.333313c117.636261,0,213.333313,95.7024002,213.333313,213.333313    C469.333313,373.6319885,373.636261,469.3338623,256,469.3338623z" fill="url(#SVGID_2_)"/></g><path d="M346.6287842,261.5888062c2.9706726-6.8000031,4.643219-14.2965393,4.643219-22.1903992   c0-30.6586761-24.8533325-55.5120087-55.5119934-55.5120087c-14.7466736,0-28.1269531,5.7685394-38.0597534,15.1520081   c-3.8293304-1.9840088-8.1674652-3.1226807-12.7781219-3.1226807c-11.788269,0-21.8437347,7.3360138-25.9082642,17.6816101   c-2.837326-0.6287994-5.7781372-0.9802704-8.8053284-0.9802704c-22.3765411,0-40.5157318,18.13974-40.5157318,40.5167999   c0,3.7450714,0.5487976,7.35466,1.4997406,10.797348c-15.8528137,5.7909241-27.1925354,20.9615784-27.1925354,38.8191833l0,0   c0,22.84375,18.519455,41.3631897,41.3637085,41.3631897h157.273056C365.4810486,344.1135864,384,325.5941467,384,302.7503967l0,0   C384,281.2538757,367.598938,263.5983887,346.6287842,261.5888062z M242.7258759,309.9866638l-33.8896179-33.8917236   l7.0704041-7.0704041l26.8192139,26.8213196l57.1749115-57.1749268l7.0704346,7.06987L242.7258759,309.9866638z" opacity="0.3"/><path d="M338.6287842,253.5888062c2.9706726-6.8000031,4.643219-14.2965393,4.643219-22.1903992   c0-30.6586761-24.8533325-55.5120087-55.5119934-55.5120087c-14.7466736,0-28.1269531,5.7685394-38.0597534,15.1520081   c-3.8293304-1.9840088-8.1674652-3.1226807-12.7781219-3.1226807c-11.788269,0-21.8437347,7.3360138-25.9082642,17.6816101   c-2.837326-0.6287994-5.7781372-0.9802704-8.8053284-0.9802704c-22.3765411,0-40.5157318,18.13974-40.5157318,40.5167999   c0,3.7450714,0.5487976,7.3546753,1.4997406,10.7973328c-15.8528137,5.7909393-27.1925354,20.9615936-27.1925354,38.8191986l0,0   c0,22.84375,18.519455,41.3631897,41.3637085,41.3631897h157.273056C357.4810486,336.1135864,376,317.5941467,376,294.7503967l0,0   C376,273.2538757,359.598938,255.5984039,338.6287842,253.5888062z M234.7258759,301.9866638l-33.8896179-33.8917236   l7.0704041-7.0704041l26.8192139,26.8213196l57.1749115-57.1749268l7.0704346,7.06987L234.7258759,301.9866638z" fill="#FFFFFF"/></g></svg>